<svg id='Obituary_24' width='24' height='24' viewBox='0 0 24 24' xmlns='http://www.w3.org/2000/svg' xmlns:xlink='http://www.w3.org/1999/xlink'><rect width='24' height='24' stroke='none' fill='#000000' opacity='0'/>


<g transform="matrix(1 0 0 1 12 12)" >
<path style="stroke: none; stroke-width: 1; stroke-dasharray: none; stroke-linecap: butt; stroke-dashoffset: 0; stroke-linejoin: miter; stroke-miterlimit: 4; fill: rgb(0,0,0); fill-rule: nonzero; opacity: 1;" transform=" translate(-12, -12)" d="M 20 4 L 4 4 C 2.895 4 2 4.895 2 6 L 2 18 C 2 19.1 2.9 20 4 20 L 20 20 C 21.1 20 22 19.1 22 18 L 22 6 C 22 4.9 21.1 4 20 4 z M 8.5 7 C 9.881 7 11 8.119 11 9.5 C 11 10.881 9.881 12 8.5 12 C 7.119 12 6 10.881 6 9.5 C 6 8.119 7.119 7 8.5 7 z M 4 15.875 C 4 14.629 6.999 14 8.5 14 C 10.001000000000001 14 13 14.629 13 15.875 L 13 17 L 4 17 L 4 15.875 z M 20 11 L 18 11 L 18 17 L 16 17 L 16 11 L 14 11 L 14 9 L 16 9 L 16 7 L 18 7 L 18 9 L 20 9 L 20 11 z" stroke-linecap="round" />
</g>
</svg>
